<svg width="217" height="50" viewBox="0 0 217 50" fill="none" xmlns="http://www.w3.org/2000/svg">
    <g clip-path="url(#clip0_54_2)">
        <path d="M28.7011 28.75C28.7011 30.25 28.5768 31.75 28.2041 33.25C27.9556 34.625 27.4586 36 26.7131 37C25.9676 38.125 25.0979 39 23.9797 39.625C22.8615 40.25 21.4948 40.625 19.7553 40.625C18.1401 40.625 16.7734 40.25 15.6551 39.625C14.5369 39 13.6672 38.125 12.9217 37C12.1762 35.875 11.6792 34.625 11.4307 33.25C11.058 31.875 10.9337 30.25 10.9337 28.75V6.75H0V28.75C0 31.5 0.372741 34.25 1.11822 36.75C1.86371 39.375 2.98193 41.625 4.59714 43.5C6.21236 45.5 8.20031 47 10.8095 48.25C13.2944 49.375 16.4006 50 19.8795 50C23.2342 50 26.3404 49.5 28.8253 48.375C31.3103 47.25 33.4225 45.75 35.0377 43.75C36.6529 41.875 37.8954 39.5 38.6409 37C39.3863 34.5 39.7591 31.625 39.7591 28.75V6.75H28.8253V28.75H28.7011ZM44.729 16.125H58.1477V49.625H69.0814V16.125H82.3758V6.75H44.729V16.125ZM165.497 31.75C166.367 30.875 167.237 29.875 167.858 28.75C168.479 27.625 168.976 26.5 169.349 25.25C169.722 24 169.846 22.75 169.846 21.375C169.846 19.625 169.473 17.75 168.728 16.125C167.982 14.375 166.988 12.875 165.621 11.5C164.255 10.125 162.764 9 161.024 8.125C159.285 7.25 157.297 6.875 155.185 6.875H135.057V49.75H145.99V36.125H151.954L160.776 49.625H173.2L162.764 33.75C163.758 33.125 164.627 32.5 165.497 31.75ZM158.664 21.375C158.664 23 158.291 24.25 157.421 25.25C156.676 26.25 155.682 26.75 154.688 26.75H145.866V16.125H154.439C155.433 16.125 156.427 16.625 157.297 17.5C158.167 18.5 158.664 19.75 158.664 21.375ZM206.002 6.75V30.75L186.246 6.875L186.122 6.75H177.673V49.625H188.607V26.375L208.114 49.625H216.935V6.75H206.002Z" fill="#131628"/>
        <path d="M131.578 11.5L121.389 0L111.574 11.5H116.171V28.375C116.171 29.875 116.047 31.375 115.674 32.875C115.426 34.25 114.804 35.625 114.183 36.625C113.438 37.75 112.568 38.625 111.45 39.25C110.331 39.875 108.965 40.25 107.225 40.25C105.61 40.25 104.243 39.875 103.125 39.25C102.007 38.625 101.137 37.75 100.392 36.625C99.6462 35.5 99.1492 34.25 98.7764 32.875C98.4037 31.5 98.2794 29.875 98.2794 28.375V6.5H87.3457V28.375C87.3457 31.125 87.7184 33.875 88.4639 36.375C89.2094 38.875 90.3276 41.25 91.9428 43.125C93.5581 45.125 95.546 46.625 98.1552 47.875C100.64 49 103.746 49.625 107.225 49.625C110.58 49.625 113.686 49.125 116.171 48C118.656 46.875 120.768 45.375 122.383 43.375C123.999 41.5 125.241 39.125 125.987 36.625C126.732 34.125 127.105 31.25 127.105 28.375V11.5H131.578Z" fill="url(#paint0_linear_54_2)"/>
    </g>
    <defs>
        <linearGradient id="paint0_linear_54_2" x1="87.4998" y1="24.8313" x2="131.57" y2="24.8313" gradientUnits="userSpaceOnUse">
            <stop stop-color="#00BEEB"/>
            <stop offset="1" stop-color="#00BE87"/>
        </linearGradient>
        <clipPath id="clip0_54_2">
            <rect width="216.935" height="50" fill="white"/>
        </clipPath>
    </defs>
</svg>